<?xml version="1.0" standalone="no"?><!DOCTYPE svg PUBLIC "-//W3C//DTD SVG 1.1//EN" "http://www.w3.org/Graphics/SVG/1.1/DTD/svg11.dtd"><svg t="1540721821987" class="icon" style="" viewBox="0 0 1160 1024" version="1.1" xmlns="http://www.w3.org/2000/svg" p-id="2782" xmlns:xlink="http://www.w3.org/1999/xlink" width="226.5625" height="200"><defs><style type="text/css"></style></defs><path d="M136.533333 273.066667H6.826667v221.866666h1146.88V273.066667h-133.12z" fill="#FDE466" p-id="2783"></path><path d="M1017.173333 119.466667v157.013333h133.12V167.253333c0-78.506667-61.44-146.773333-133.12-160.426666v112.64zM136.533333 10.24C64.853333 23.893333 6.826667 88.746667 6.826667 167.253333v112.64H136.533333V10.24z" fill="#FDE670" p-id="2784"></path><path d="M133.12 361.813333h365.226667v-238.933333H133.12zM662.186667 122.88v242.346667h358.4V122.88z" fill="#F2573B" p-id="2785"></path><path d="M498.346667 6.826667v269.653333l163.84-3.413333V6.826667z" fill="#FFA371" p-id="2786"></path><path d="M167.253333 6.826667H136.533333v112.64h365.226667V6.826667H167.253333zM662.186667 6.826667v112.64h358.4V6.826667c-10.24-3.413333-20.48-3.413333-27.306667-3.413334h-331.093333z" fill="#E1462A" p-id="2787"></path><path d="M7.441067 861.2864c0 88.746667 68.266667 157.013333 157.013333 157.013333h832.853333c88.746667 0 157.013333-61.44 157.013334-153.6v-402.773333H7.441067v399.36z" fill="#F9C45A" p-id="2788"></path><path d="M133.7344 653.073067h894.293333v-61.44h-894.293333z" fill="#D7341F" p-id="2789"></path><path d="M133.7344 895.419733h894.293333v-242.346666h-894.293333z" fill="#EB492C" p-id="2790"></path><path d="M389.12 457.386667c0 112.64 88.746667 204.8 201.386667 204.8 51.2 0 98.986667-20.48 136.533333-54.613334L443.733333 317.44c-34.133333 37.546667-54.613333 85.333333-54.613333 139.946667M795.306667 457.386667c0-112.64-88.746667-204.8-201.386667-204.8-20.48 0-40.96 3.413333-58.026667 10.24l252.586667 256c3.413333-20.48 6.826667-40.96 6.826667-61.44" fill="#FCD134" p-id="2791"></path><path d="M785.066667 515.413333l-252.586667-256c-34.133333 10.24-68.266667 30.72-92.16 58.026667l283.306667 290.133333c30.72-23.893333 51.2-54.613333 61.44-92.16" fill="#FFE786" p-id="2792"></path><path d="M481.28 457.386667c0-61.44 51.2-112.64 109.226667-112.64s109.226667 51.2 109.226666 112.64-51.2 112.64-109.226666 112.64-109.226667-51.2-109.226667-112.64z" fill="#E56049" p-id="2793"></path><path d="M822.613333 44.373333c0 98.986667-78.506667 180.906667-177.493333 180.906667 98.986667 0 177.493333 81.92 177.493333 180.906667 0-98.986667 78.506667-180.906667 177.493334-180.906667-95.573333 0-177.493333-81.92-177.493334-180.906667M276.48 85.333333c0 98.986667-78.506667 180.906667-177.493333 180.906667 98.986667 0 177.493333 81.92 177.493333 180.906667 0-98.986667 78.506667-180.906667 177.493333-180.906667-98.986667 0-177.493333-81.92-177.493333-180.906667" fill="#FFFFFF" p-id="2794"></path></svg>