<?xml version="1.0" standalone="no"?><!DOCTYPE svg PUBLIC "-//W3C//DTD SVG 1.1//EN" "http://www.w3.org/Graphics/SVG/1.1/DTD/svg11.dtd"><svg t="1546827877735" class="icon" style="" viewBox="0 0 1024 1024" version="1.1" xmlns="http://www.w3.org/2000/svg" p-id="7261" xmlns:xlink="http://www.w3.org/1999/xlink" width="200" height="200"><defs><style type="text/css"></style></defs><path d="M231.56 731V242.57c0-5.31 0.91-10.53 1.64-15.64L92.61 272.5a62.14 62.14 0 0 0-39.89 78.24l151.6 464.49a62.57 62.57 0 0 0 78.6 39.87l39.89-13.1c-51.64-10.25-91.25-56.72-91.25-111z m102.05-72.86l151.53-464.4c1.53-4.7 3.36-10.38 5.44-13.48H344.8c-34.29 0-63.38 28.19-63.38 62.34V731c0 34.15 29.09 63.9 63.38 63.9h49.77c-51.72-24.9-78.84-81.98-60.96-136.79zM931.27 272.5L611.12 168.91a62.48 62.48 0 0 0-78.55 39.85L381 673.26a62.23 62.23 0 0 0 40 78.24l320.21 103.6a62.51 62.51 0 0 0 78.55-39.87l151.53-464.49a62.21 62.21 0 0 0-40.02-78.24zM632 635.68c-151-182.59-63-273.33-7.36-273.08 46.91 0.23 66 33.72 74.15 68.19C723.9 403.35 761 391.72 799 419c45.23 32.35 62.89 157.23-167 216.68z" fill="#f4ea2a" p-id="7262"></path></svg>