<?xml version="1.0" standalone="no"?><!DOCTYPE svg PUBLIC "-//W3C//DTD SVG 1.1//EN" "http://www.w3.org/Graphics/SVG/1.1/DTD/svg11.dtd"><svg t="1540537086659" class="icon" style="" viewBox="0 0 1024 1024" version="1.1" xmlns="http://www.w3.org/2000/svg" p-id="2458" xmlns:xlink="http://www.w3.org/1999/xlink" width="200" height="200"><defs><style type="text/css"></style></defs><path d="M523.343945 0h-21.551895L281.185122 313.230478l-0.703997-0.159999-0.271999 1.279993a1.791991 1.791991 0 0 1-0.287998 0.671997l-0.495998 0.687997 0.431998 0.303998-101.663506 478.173677a1.919991 1.919991 0 0 1-0.207999 0.527997l-4.671977 8.095961a1.807991 1.807991 0 0 0 0.671997 2.495988v0.623997c-0.319998 0.223999 0 0.303999-0.207999 0.591997a2.671987 2.671987 0 0 0-1.055995 2.127989v15.871923a2.687987 2.687987 0 0 0 1.327993 2.303989l337.182362 196.799044a2.607987 2.607987 0 0 0 2.687987 0L850.238356 827.35598a4.495978 4.495978 0 0 0 2.239989-3.887982v-0.271998-13.935932-0.607998a2.687987 2.687987 0 0 0-0.527997-1.599992v-0.095999l-3.039985-5.263975a1.599992 1.599992 0 0 1-0.191999-0.527997L745.598865 316.046464l0.463998-0.335998-0.767997-1.087995-0.127999-0.591997h-0.255999L523.823943 0m-22.031893 234.366861l-0.223999-0.127999-142.239309 246.398802a1.839991 1.839991 0 0 1-3.343984-0.383998l-50.175756-162.47921a1.839991 1.839991 0 0 1 0.255999-1.599992L498.464066 42.847792a1.823991 1.823991 0 0 1 3.327984 1.055995z m11.199945 29.679856l144.815296 250.814781a1.839991 1.839991 0 0 1 0.16 1.455993l-88.751569 287.358604a1.839991 1.839991 0 0 1-1.743992 1.295993H457.600264a1.823991 1.823991 0 0 1-1.743991-1.295993L366.400708 513.741504a1.775991 1.775991 0 0 1 0.159999-1.455993L509.824011 263.998717a1.823991 1.823991 0 0 1 3.167984 0z m162.335211 281.166634l148.383279 257.006751a1.839991 1.839991 0 0 1-1.599992 2.751986H594.3676a1.839991 1.839991 0 0 1-1.743992-2.383988L671.999223 545.597349a1.823991 1.823991 0 0 1 3.327983-0.383998zM561.279761 829.38797l-46.975772 152.095261a1.839991 1.839991 0 0 1-3.503983 0l-46.975772-152.095261a1.839991 1.839991 0 0 1 1.743992-2.383989h93.951543a1.839991 1.839991 0 0 1 1.759992 2.383989z m-130.559366-24.415882H200.689513a1.839991 1.839991 0 0 1-1.791992-2.223989 2.12799 2.12799 0 0 1 0.207999-0.527997l149.871272-259.582739a1.823991 1.823991 0 0 1 3.327984 0.383998l80.17561 259.566739a1.839991 1.839991 0 0 1-1.759991 2.383988z m9.695953 23.327887l48.319765 156.44724a1.823991 1.823991 0 0 1-2.671987 2.111989L218.049428 830.395965a1.839991 1.839991 0 0 1 0.927996-3.423984h219.694932a1.839991 1.839991 0 0 1 1.743992 1.327994z m146.01529-1.295994h219.870932a1.839991 1.839991 0 0 1 0.927995 3.423984l-268.238696 156.559239a1.823991 1.823991 0 0 1-2.671987-2.12799l48.351765-156.559239a1.855991 1.855991 0 0 1 1.759991-1.295994z m95.903534-314.910469l46.687773-151.135266a1.823991 1.823991 0 0 1 3.535983 0.159999l78.095621 367.230216a1.839991 1.839991 0 0 1-3.391984 1.295993L682.495172 513.597504a1.839991 1.839991 0 0 1-0.16-1.503992z m37.03982-194.639055L668.31924 482.813654a1.839991 1.839991 0 0 1-3.343983 0.383998l-139.679322-241.934824a2.639987 2.639987 0 0 0-0.751996-0.815996 1.759991 1.759991 0 0 1-0.719996-1.455993V44.207785a1.839991 1.839991 0 0 1 3.343983-1.055995l191.999067 272.718675a1.807991 1.807991 0 0 1 0.207999 1.583992z m-423.133944 44.015786l45.727778 148.047281a1.839991 1.839991 0 0 1-0.175999 1.455993l-122.207406 211.694971a1.823991 1.823991 0 0 1-3.375984-1.295993L292.689066 361.598243a1.839991 1.839991 0 0 1 3.551982-0.128z" p-id="2459"></path></svg>