<?xml version="1.0" standalone="no"?><!DOCTYPE svg PUBLIC "-//W3C//DTD SVG 1.1//EN" "http://www.w3.org/Graphics/SVG/1.1/DTD/svg11.dtd"><svg t="1546827468481" class="icon" style="" viewBox="0 0 1024 1024" version="1.1" xmlns="http://www.w3.org/2000/svg" p-id="3181" xmlns:xlink="http://www.w3.org/1999/xlink" width="200" height="200"><defs><style type="text/css"></style></defs><path d="M390.1 235.5s-36.1 46.8 26.7 81.6c0 0 25.2 7.1 39.5-7.2 0 0 66.2-79.7 125-53 0 0 99 29.4 73.5 131.1 0 0-12 40.1-66.9 89.6L256.4 805.2s0 80.2 73.5 68.2l363.7-360.2s112.3-98.5 60.2-216.2c0 0-131-286.2-363.7-61.5z" fill="#f4ea2a" p-id="3182" data-spm-anchor-id="a313x.7781069.0.i14" class="selected"></path><path d="M385.8 233c-9.2 12-12.9 29-10 43.7 2.9 14.5 12.6 26.5 24.1 35.3 5.1 4 11.2 9.1 17.7 10.4 5.8 1.2 11.8 1.8 17.7 1.3 10.5-0.8 19.7-4.7 26.7-12.6 5.8-6.6 12.1-12.8 18.7-18.6 20.1-17.9 45.9-35.5 73.9-36.1 9.7-0.2 17.9 2.6 26.9 5.7 5.2 1.8 7.9 3 12.9 5.4 17 8.4 32.7 20.3 43.6 35.9 16.2 23.2 19.2 51.6 13.2 78.9-1.3 5.8-2.9 9.7-5.3 14.7-5.6 11.6-12.6 22.5-20.3 32.8-18.6 25-42.7 45.9-64.8 67.8-27.8 27.5-55.6 54.9-83.4 82.4-35.2 34.8-70.4 69.5-105.6 104.3-29.3 28.9-58.6 57.9-87.9 86.8L259 795.7c-3.6 3.6-7.7 6.2-7.4 11.8 0.8 15.3 4.7 31.1 12.8 44.2 13.5 22 37.4 30.3 62.4 27.2 4.3-0.5 6.1-1.2 8.7-3.8l6.6-6.6c8.6-8.6 17.3-17.1 25.9-25.7l86.7-85.8c35.3-34.9 70.5-69.8 105.8-104.8l91.7-90.8c14.8-14.7 29.5-29.6 44.5-44.1 22.7-21.9 42.3-47 56.1-75.5 22.9-47.1 27.7-102.6 3.9-150.5-11.4-22.8-25.8-44.3-42-63.9-25.7-31.2-57.7-58.3-95.9-72.6-48.4-18.2-100.3-10.2-145.6 12.9-32.1 16.4-60.6 39.3-86.5 64.2-4.6 4.5 2.4 11.5 7.1 7.1 48.2-46.4 110.9-89.9 181.1-84.1 46.5 3.8 87.2 30.3 118.6 63.4 21.2 22.4 39.4 48.2 53.5 75.7 25.5 49.8 17.5 107.6-9.2 155-13.8 24.5-31.8 45-51.6 64.6-21.8 21.6-43.6 43.2-65.5 64.8-37 36.6-73.9 73.2-110.9 109.8-37.1 36.8-74.3 73.6-111.4 110.3-22.4 22.1-44.7 44.3-67.1 66.4-1.4 1.4-2.9 3.5-4.6 4.5-1 0.6 2.7-0.8 0.7-0.9-4.4-0.1-9 0.9-13.5 0.8-6.8-0.2-13.7-1.4-19.9-4.1-19.4-8.5-28.2-29.3-31.5-49-0.5-2.9-1-7.4-1-11.3-0.5 1.2-1 2.4-1.5 3.5 10.2-10 20.3-20.1 30.5-30.1l74.4-73.5c30.5-30.2 61.1-60.4 91.6-90.5 27.7-27.3 55.3-54.7 83-82 16.1-15.9 32.2-31.8 48.2-47.7 10.3-10.2 21-19.8 30.6-30.7 15.3-17.3 29.6-36.6 38.7-58 7.4-17.3 8.5-37.9 5.8-56.3-3.1-21.3-13.3-40.8-28.4-56-10.9-11-24.1-19.9-38.1-26.4-10.5-4.9-21.9-9.4-33.3-10.7-25.3-2.8-50.1 9-70.2 23.2-14.3 10.1-27.3 22-38.9 35-6.3 7.1-15.6 9.1-24.9 8.8-3.3-0.1-7.4-0.2-10.6-1.5-6.4-2.6-13.1-8.3-18.1-13-14.9-14-19.7-33.6-11.3-52.2 1.4-3.2 3.1-6.4 5.3-9.2 4-4.7-4.7-9.7-8.5-4.6z" fill="" p-id="3183"></path><path d="M471.7 178.2c12.4 3 24.5 7.3 36.3 12 21.3 8.5 43.4 19.6 59.2 36.7 8.1 8.8 14 19.6 14.2 31.8 0.1 6.4 10.1 6.4 10 0-0.5-25.2-19.5-44-39.3-57.1-19.3-12.7-41.1-21.8-63.1-28.8-4.9-1.6-9.8-3.1-14.7-4.3-6.2-1.5-8.9 8.1-2.6 9.7zM657.2 190c5.4 13.1 8.6 27.5 10.2 41.5 3.4 28.8-0.5 58.5-16.9 83-3.6 5.4 5.1 10.4 8.6 5 17-25.5 21.7-56.8 18.4-86.8-1.7-15.3-4.8-31.1-10.7-45.4-2.4-5.9-12.1-3.3-9.6 2.7zM628.5 438.8c10.8 1.1 22.2-0.6 32.7-2.9 25.7-5.4 49.5-17.8 69.6-34.6 16.1-13.5 29.5-29.8 40.8-47.5 3.5-5.4-5.2-10.5-8.6-5-27.4 42.9-71.7 77.7-124.2 80.1-3.4 0.2-6.9 0.3-10.3-0.1-6.4-0.6-6.3 9.4 0 10zM542.2 522.8c6 5.9 15 9.2 22.8 11.4 23.4 6.6 48.9 3.9 72.2-1.4 23.6-5.4 46.2-14.3 68.2-24.4 5.8-2.7 0.8-11.3-5-8.6-31.8 14.7-66.5 27.4-101.9 28.2-15 0.3-31.6-1.8-43.9-8.7-1.6-0.9-3.2-1.9-4.7-3 1 0.7 0.1 0.1-0.6-0.5-4.7-4.5-11.7 2.5-7.1 7zM433.5 632c8.4 5.2 18.5 8.3 27.9 10.6 24.2 5.8 49.7 5.1 73.9-0.4 20.1-4.6 39.4-12.5 57.5-22.4 5.7-3.1 0.6-11.7-5-8.6-42.2 22.9-95.9 35.2-141 16.2-2.8-1.2-5.6-2.4-8.2-4-5.6-3.4-10.6 5.2-5.1 8.6zM320.9 741.4c6.4 6 15.4 9.8 23.7 12.5 22.8 7.4 47.7 6.1 70.8 1.3 22-4.6 43-12.7 63.3-22.3 5.8-2.8 0.7-11.4-5-8.6-29.7 14.1-62.4 25.3-95.6 24.8-15.4-0.2-31.3-3.2-44.3-10.8-1.7-1-3.3-2.1-4.9-3.2-0.1-0.1 0.8 0.5-0.3-0.3-0.1-0.1-0.3-0.2-0.4-0.4-4.9-4.5-12 2.6-7.3 7z" fill="" p-id="3184"></path></svg>