<?xml version="1.0" standalone="no"?><!DOCTYPE svg PUBLIC "-//W3C//DTD SVG 1.1//EN" "http://www.w3.org/Graphics/SVG/1.1/DTD/svg11.dtd"><svg t="1540634783207" class="icon" style="" viewBox="0 0 1024 1024" version="1.1" xmlns="http://www.w3.org/2000/svg" p-id="5953" xmlns:xlink="http://www.w3.org/1999/xlink" width="200" height="200"><defs><style type="text/css"></style></defs><path d="M544 248.88c32-16.688 97.792-47.984 164.112-55.664 88.272-10.24 216.368 51.456 217.648 52.08l34.896-71.92c-175.088-85.408-301.776-77.008-457.6 6.08-36.128-19.248-114.176-56.304-195.424-65.696-111.792-12.896-256.064 56.64-262.16 59.616l35.04 71.904c35.648-17.376 144.88-60.56 218.384-52.064 66.32 7.68 133.104 38.976 165.104 55.664V832H240v80h528v-80H544V248.88z m307.472 43.056c-19.088-46.016-84.64-45.92-103.696 0.016L624 591.648v71.968C624 720.96 669.664 768 727.008 768h144C928.352 768 976 720.96 976 663.616v-71.968l-124.528-299.712zM896 663.616c0 13.248-11.76 24.384-24.992 24.384h-144C713.76 688 704 676.848 704 663.616v-56.032l95.504-231.36L881.744 576H768v64h128v23.616z m-512 0v-71.968l-124.784-299.712c-8.704-20.976-29.264-34.528-51.984-34.528s-42.624 13.552-51.36 34.56L32 591.632v71.968C32 720.96 77.648 768 134.992 768h144C336.32 768 384 720.96 384 663.616z m-272 0v-56.032l95.488-231.36L289.728 576H176v64h128v23.616c0 13.248-11.776 24.384-25.008 24.384h-144C121.76 688 112 676.848 112 663.616z" p-id="5954"></path></svg>