<?xml version="1.0" standalone="no"?><!DOCTYPE svg PUBLIC "-//W3C//DTD SVG 1.1//EN" "http://www.w3.org/Graphics/SVG/1.1/DTD/svg11.dtd"><svg t="1543114781281" class="icon" style="" viewBox="0 0 1024 1024" version="1.1" xmlns="http://www.w3.org/2000/svg" p-id="2048" xmlns:xlink="http://www.w3.org/1999/xlink" width="200" height="200"><defs><style type="text/css"></style></defs><path d="M512 512m-512 0a512 512 0 1 0 1024 0 512 512 0 1 0-1024 0Z" fill="#B9C3A7" p-id="2049"></path><path d="M659.5584 487.5264l-59.6992 78.2336a141.312 141.312 0 0 0-28.4672 57.7536 87.3472 87.3472 0 0 1-19.968 37.376 62.976 62.976 0 0 1-48.2304 18.944 63.6928 63.6928 0 0 1-48.3328-20.48 62.5664 62.5664 0 0 1-15.4624-44.3392c0-30.72 7.9872-55.808 35.9424-90.624l74.1376-93.5936a110.4896 110.4896 0 0 0 28.8768-69.2224 75.0592 75.0592 0 0 0-78.6432-77.7216 78.2336 78.2336 0 0 0-61.44 23.9616 111.616 111.616 0 0 0-24.8832 47.3088 100.9664 100.9664 0 0 1-18.0224 32.8704 58.368 58.368 0 0 1-45.2608 15.872A58.368 58.368 0 0 1 307.2 386.9696a62.2592 62.2592 0 0 1-15.4624-45.7728c0-32.3584 17.408-81.2032 57.344-118.0672a215.04 215.04 0 0 1 149.2992-55.296c115.5072 0 209.7152 72.192 209.7152 194.56-0.2048 54.9888-18.2272 85.2992-48.5376 125.1328zM503.1936 729.6a78.2336 78.2336 0 1 1-78.2336 78.1312 78.5408 78.5408 0 0 1 78.2336-78.1312z" fill="#FFFFFF" p-id="2050"></path></svg>