<?xml version="1.0" standalone="no"?><!DOCTYPE svg PUBLIC "-//W3C//DTD SVG 1.1//EN" "http://www.w3.org/Graphics/SVG/1.1/DTD/svg11.dtd"><svg t="1540803204335" class="icon" style="" viewBox="0 0 1024 1024" version="1.1" xmlns="http://www.w3.org/2000/svg" p-id="3808" xmlns:xlink="http://www.w3.org/1999/xlink" width="200" height="200"><defs><style type="text/css"></style></defs><path d="M525.722 141.414H498.79c-2.355 0-4.3-1.945-4.3-4.3V12.186c0-2.356 1.945-4.301 4.3-4.301h26.932c2.355 0 4.3 1.945 4.3 4.3v124.929c0 2.355-1.945 4.3-4.3 4.3z m-165.786 37.274l-23.347 13.517c-2.048 1.126-4.608 0.512-5.837-1.536L268.288 82.432c-1.126-2.048-0.512-4.608 1.536-5.837l23.347-13.517c2.048-1.126 4.608-0.512 5.837 1.536l62.464 108.237c1.126 2.048 0.512 4.608-1.536 5.837z m-125.03 115.098l-13.517 23.347c-1.127 2.048-3.789 2.765-5.837 1.536l-108.237-62.464c-2.048-1.127-2.765-3.789-1.536-5.837l13.517-23.347c1.126-2.048 3.789-2.765 5.837-1.536l108.237 62.464c1.945 1.229 2.662 3.789 1.536 5.837z m-50.688 162.201v26.931c0 2.356-1.946 4.301-4.301 4.301H54.989c-2.355 0-4.301-1.945-4.301-4.3v-26.932c0-2.355 1.946-4.3 4.3-4.3h124.929c2.355 0.102 4.3 1.945 4.3 4.3z m37.17 165.888l13.518 23.347c1.126 2.048 0.512 4.608-1.536 5.837l-108.237 62.464c-2.048 1.127-4.608 0.512-5.837-1.536l-13.517-23.347c-1.126-2.048-0.512-4.608 1.536-5.837l108.237-62.464c2.048-1.229 4.71-0.512 5.837 1.536zM793.6 648.704l13.517-23.347c1.126-2.048 3.789-2.765 5.837-1.536l108.236 62.464c2.048 1.126 2.765 3.789 1.536 5.837l-13.516 23.347c-1.127 2.048-3.79 2.765-5.837 1.536L795.136 654.54c-2.048-1.229-2.765-3.891-1.536-5.837z m46.694-165.683V456.09c0-2.356 1.946-4.301 4.301-4.301h124.928c2.355 0 4.301 1.945 4.301 4.3v26.932c0 2.355-1.946 4.3-4.3 4.3H844.594c-2.355-0.102-4.3-1.945-4.3-4.3z m-37.17-165.888l-13.518-23.347c-1.126-2.048-0.512-4.608 1.536-5.837l108.237-62.464c2.048-1.127 4.608-0.512 5.837 1.536l13.517 23.347c1.126 2.048 0.512 4.608-1.536 5.837L808.96 318.669c-2.048 1.229-4.71 0.512-5.837-1.536z m-115.2-125.03l-23.348-13.415c-2.048-1.126-2.765-3.789-1.536-5.837l62.464-108.237c1.126-2.048 3.789-2.764 5.837-1.536l23.347 13.415c2.048 1.126 2.765 3.789 1.536 5.837L693.76 190.566c-1.126 2.048-3.789 2.765-5.837 1.536z" fill="#FFED38" p-id="3809"></path><path d="M537.498 1019.597h-50.484c-4.403 0-7.987-3.584-7.987-7.987v-79.77c0-4.403 3.584-7.987 7.987-7.987h50.484c4.403 0 7.987 3.584 7.987 7.987v79.667c0 4.506-3.584 8.09-7.987 8.09z" fill="#787BFF" p-id="3810"></path><path d="M479.027 889.856h66.458V985.6h-66.458z" fill="#11348C" p-id="3811"></path><path d="M402.944 754.688v153.088c0 32.87 30.618 59.7 68.096 59.7h82.637c37.478 0 68.096-26.83 68.096-59.7V761.344c-31.13 11.06-65.127 17.203-100.864 17.203-42.394 0-82.432-8.601-117.965-23.859z" fill="#787BFF" p-id="3812"></path><path d="M413.184 939.008c11.98 16.998 33.485 28.467 57.856 28.467h82.637c37.478 0 68.096-26.829 68.096-59.699v-95.437h-35.738c-22.63 70.451-90.931 122.573-172.851 126.669z" fill="#11348C" p-id="3813"></path><path d="M402.944 777.114v43.827h218.624V704.717H402.944v15.155c31.027 13.824 65.126 22.016 101.069 23.142-31.847 15.156-65.741 26.624-101.069 34.1z" fill="#FFC12B" p-id="3814"></path><path d="M504.013 742.912c-35.943-1.126-70.042-9.216-101.069-23.142v57.241c35.328-7.373 69.222-18.841 101.069-34.099z" fill="#FFC12B" p-id="3815"></path><path d="M504.013 742.912c-35.943-1.126-70.042-9.216-101.069-23.142v57.241c35.328-7.373 69.222-18.841 101.069-34.099z" fill="#FFED38" p-id="3816"></path><path d="M758.374 367.616c-41.37-94.925-135.987-161.28-246.067-161.28-148.275 0-268.39 120.218-268.39 268.39 0 145.51 115.712 263.783 260.198 268.186 142.439-68.198 243.405-209.51 254.26-375.296z" fill="#FFED38" p-id="3817"></path><path d="M758.374 367.616c-10.854 165.888-111.82 307.2-254.361 375.398 2.765 0.103 5.53 0.205 8.294 0.205 148.275 0 268.39-120.217 268.39-268.39 0-38.195-7.987-74.445-22.323-107.213z" fill="#FFC12B" p-id="3818"></path><path d="M758.374 367.616c-41.37-94.925-135.987-161.28-246.067-161.28-148.275 0-268.39 120.218-268.39 268.39 0 145.51 115.712 263.783 260.198 268.186 142.439-68.198 243.405-209.51 254.26-375.296z" fill="#FFED38" p-id="3819"></path><path d="M320.505 521.917a50.38 88.064 17.998 1 0 54.42-167.51 50.38 88.064 17.998 1 0-54.42 167.51z" fill="#FFFCE9" p-id="3820"></path></svg>