<?xml version="1.0" standalone="no"?><!DOCTYPE svg PUBLIC "-//W3C//DTD SVG 1.1//EN" "http://www.w3.org/Graphics/SVG/1.1/DTD/svg11.dtd"><svg t="1540537159144" class="icon" style="" viewBox="0 0 1024 1024" version="1.1" xmlns="http://www.w3.org/2000/svg" p-id="5385" xmlns:xlink="http://www.w3.org/1999/xlink" width="200" height="200"><defs><style type="text/css"></style></defs><path d="M875.603 600.394c-28.363-102.414-89.096-181.477-184.04-235.25-10.912-6.18-22.449-11.328-33.71-16.963 0.073-0.156 0.125-0.505 0.334-0.69 1.89-1.767 3.822-3.495 5.726-5.248 19.539-18.07 37.083-38.97 46.251-63.63 4.446-11.952 5.545-17.154 8.63-28.249 5.744-35.044-0.858-56.347-22.38-74.056-29.086-23.937-62.088-26.767-96.947-12.716-2.42 0.972-4.025 1.682-6.434-0.524-44.871-41.062-116.908-41.445-162.086-0.903-2.108 1.895-3.635 2.372-6.373 1.155-18.33-8.164-37.493-9.911-57.162-5.978-37.276 7.454-68.106 38.14-62.635 80.049 4.748 36.358 19.31 67.82 44.413 94.941 5.153 5.57 10.63 10.858 16.175 16.49-1.38 0.65-2.75 1.324-4.144 1.944-128.24 56.748-214.87 180.055-225.012 320.309-2.806 38.785-0.458 77.189 9.605 115.22 15.848 59.908 70.303 104.786 135.686 104.64 154.08-0.342 308.163 0.035 462.243-0.192 49.498-0.075 87.602-21.575 115.252-60.723 14.051-19.9 20.622-42.497 24.448-66.169 8.904-55.064 7.054-109.648-7.84-163.457z m-31.637 136.94c-3.31 21.561-6.898 44.175-19.066 62.3-23.947 35.664-69.818 55.245-112.684 55.316-133.442 0.207-266.89-0.137-400.333 0.175-56.627 0.13-110.036-31.336-123.765-85.905-8.714-34.647-7.773-77.984-5.34-113.314 8.787-127.76 124.523-248.24 235.59-299.934 1.208-0.56-32.005-29.644-36.473-34.716-21.745-24.704-35.324-44.714-39.431-77.833-5.05-40.659 25.395-52.655 43.82-56.534 17.039-3.585 53.2 14.566 55.028 12.838 39.128-36.931 101.52-36.58 140.377 0.822 2.089 2.01 3.478 1.365 5.571 0.477 30.195-12.802 55.725-20.69 80.918 1.113 18.643 16.132 19.074 28.113 14.503 53.447-2.775 10.51-20.017 38.614-26.597 47.327-24.327 32.18-48.136 52.72-49.78 54.326-0.177 0.172 51.997 24.63 60.718 31.266 80.538 61.279 134.833 108.67 159.395 201.961 12.9 49.016 25.258 96.71 17.549 146.868zM511.88 516.372l-45.636-48.929c-6.336-6.795-10.777-11.892-13.311-15.29-5.066-4.755-11.724-8.663-19.966-11.72-8.236-3.057-15.206-1.189-20.912 5.605-5.072 7.474-6.337 14.781-3.807 21.918 2.536 7.132 5.389 12.742 8.559 16.817l14.259 14.274a5434.147 5434.147 0 0 0 22.82 26.5c9.505 10.874 19.964 22.428 31.37 34.661l-0.947 21.405h-64.65c-5.705 0-10.615 2.377-14.738 7.137-4.118 4.753-6.178 9.85-6.178 15.29 0 5.435 1.904 10.193 5.705 14.27 3.8 4.08 8.872 6.119 15.213 6.119h64.65v35.677h-64.65c-5.706 0-10.616 1.869-14.739 5.605-4.118 3.738-6.178 8.668-6.178 14.781-0.63 5.44 1.114 10.024 5.23 13.76 4.118 3.741 9.352 5.61 15.687 5.61h64.65v20.387c0.634 9.514 3.487 16.137 8.558 19.874 5.065 3.738 11.406 5.61 19.012 5.61 7.607 0.675 13.786-1.873 18.539-7.646 4.754-5.776 7.132-11.725 7.132-17.84v-20.39h66.55c6.334 0 11.567-1.532 15.685-4.589 4.124-3.057 5.861-7.982 5.232-14.782 0-14.268-8.876-21.404-26.624-21.404h-60.843l0.948-34.66 61.801-1.018c8.871 0.68 15.213-1.189 19.013-5.605 3.805-4.418 5.706-9.686 5.706-15.8 0-5.44-2.062-10.365-6.18-14.782-4.124-4.415-10.615-6.627-19.492-6.627h-61.795v-19.366c10.776-10.873 20.6-21.41 29.471-31.604a1668.752 1668.752 0 0 0 22.818-24.97c7.606-8.497 13.308-14.444 17.113-17.84 14.578-13.593 17.748-25.483 9.506-35.677-4.435-6.12-10.14-9.176-17.113-9.176-6.97 0-13.306 2.72-19.013 8.154-3.169 2.72-8.558 7.645-16.164 14.781a1361.826 1361.826 0 0 0-22.82 21.918 6105.637 6105.637 0 0 0-29.47 29.562z m0 0" p-id="5386"></path></svg>